<?xml version="1.0" encoding="utf-8"?>
<svg xmlns="http://www.w3.org/2000/svg">
<symbol id="check" viewBox="0 0 24 24"><g data-name="Layer 2"><path d="M9.86 18a1 1 0 01-.73-.32l-4.86-5.17a1 1 0 111.46-1.37l4.12 4.39 8.41-9.2a1 1 0 111.48 1.34l-9.14 10a1 1 0 01-.73.33z" data-name="checkmark"/></g>
</symbol>
<symbol id="clock" viewBox="0 0 24 24"><g data-name="Layer 2"><g data-name="clock"><path d="M12 2a10 10 0 1010 10A10 10 0 0012 2zm0 18a8 8 0 118-8 8 8 0 01-8 8z"/><path d="M16 11h-3V8a1 1 0 00-2 0v4a1 1 0 001 1h4a1 1 0 000-2z"/></g></g>
</symbol>
<symbol id="close" viewBox="0 0 24 24"><g data-name="Layer 2"><path d="M13.41 12l4.3-4.29a1 1 0 10-1.42-1.42L12 10.59l-4.29-4.3a1 1 0 00-1.42 1.42l4.3 4.29-4.3 4.29a1 1 0 000 1.42 1 1 0 001.42 0l4.29-4.3 4.29 4.3a1 1 0 001.42 0 1 1 0 000-1.42z" data-name="close"/></g>
</symbol>
<symbol id="edit" viewBox="0 0 24 24"><g data-name="Layer 2"><g data-name="edit-2"><path d="M19 20H5a1 1 0 0 0 0 2h14a1 1 0 0 0 0-2zM5 18h.09l4.17-.38a2 2 0 0 0 1.21-.57l9-9a1.92 1.92 0 0 0-.07-2.71L16.66 2.6A2 2 0 0 0 14 2.53l-9 9a2 2 0 0 0-.57 1.21L4 16.91a1 1 0 0 0 .29.8A1 1 0 0 0 5 18zM15.27 4L18 6.73l-2 1.95L13.32 6zm-8.9 8.91L12 7.32l2.7 2.7-5.6 5.6-3 .28z"/></g></g>
</symbol>
<symbol id="github" viewBox="0 0 24 24"><path d="M16.24 22a1 1 0 0 1-1-1v-2.6a2.15 2.15 0 0 0-.54-1.66 1 1 0 0 1 .61-1.67C17.75 14.78 20 14 20 9.77a4 4 0 0 0-.67-2.22 2.75 2.75 0 0 1-.41-2.06 3.71 3.71 0 0 0 0-1.41 7.65 7.65 0 0 0-2.09 1.09 1 1 0 0 1-.84.15 10.15 10.15 0 0 0-5.52 0 1 1 0 0 1-.84-.15 7.4 7.4 0 0 0-2.11-1.09 3.52 3.52 0 0 0 0 1.41 2.84 2.84 0 0 1-.43 2.08 4.07 4.07 0 0 0-.67 2.23c0 3.89 1.88 4.93 4.7 5.29a1 1 0 0 1 .82.66 1 1 0 0 1-.21 1 2.06 2.06 0 0 0-.55 1.56V21a1 1 0 0 1-2 0v-.57a6 6 0 0 1-5.27-2.09 3.9 3.9 0 0 0-1.16-.88 1 1 0 1 1 .5-1.94 4.93 4.93 0 0 1 2 1.36c1 1 2 1.88 3.9 1.52a3.89 3.89 0 0 1 .23-1.58c-2.06-.52-5-2-5-7a6 6 0 0 1 1-3.33.85.85 0 0 0 .13-.62 5.69 5.69 0 0 1 .33-3.21 1 1 0 0 1 .63-.57c.34-.1 1.56-.3 3.87 1.2a12.16 12.16 0 0 1 5.69 0c2.31-1.5 3.53-1.31 3.86-1.2a1 1 0 0 1 .63.57 5.71 5.71 0 0 1 .33 3.22.75.75 0 0 0 .11.57 6 6 0 0 1 1 3.34c0 5.07-2.92 6.54-5 7a4.28 4.28 0 0 1 .22 1.67V21a1 1 0 0 1-.94 1z" data-name="Layer 2"/>
</symbol>
<symbol id="heart" viewBox="0 0 24 24"><g data-name="Layer 2"><path d="M12 21a1 1 0 0 1-.71-.29l-7.77-7.78a5.26 5.26 0 0 1 0-7.4 5.24 5.24 0 0 1 7.4 0L12 6.61l1.08-1.08a5.24 5.24 0 0 1 7.4 0 5.26 5.26 0 0 1 0 7.4l-7.77 7.78A1 1 0 0 1 12 21zM7.22 6a3.2 3.2 0 0 0-2.28.94 3.24 3.24 0 0 0 0 4.57L12 18.58l7.06-7.07a3.24 3.24 0 0 0 0-4.57 3.32 3.32 0 0 0-4.56 0l-1.79 1.8a1 1 0 0 1-1.42 0L9.5 6.94A3.2 3.2 0 0 0 7.22 6z" data-name="heart"/></g>
</symbol>
<symbol id="in" viewBox="0 0 24 24"><g data-name="Layer 2"><g data-name="log-in"><path d="M19 4h-2a1 1 0 0 0 0 2h1v12h-1a1 1 0 0 0 0 2h2a1 1 0 0 0 1-1V5a1 1 0 0 0-1-1zM11.8 7.4a1 1 0 0 0-1.6 1.2L12 11H4a1 1 0 0 0 0 2h8.09l-1.72 2.44a1 1 0 0 0 .24 1.4 1 1 0 0 0 .58.18 1 1 0 0 0 .81-.42l2.82-4a1 1 0 0 0 0-1.18z"/></g></g>
</symbol>
<symbol id="person" viewBox="0 0 24 24"><g data-name="Layer 2"><g data-name="person"><path d="M12 11a4 4 0 10-4-4 4 4 0 004 4zm0-6a2 2 0 11-2 2 2 2 0 012-2zM12 13a7 7 0 00-7 7 1 1 0 002 0 5 5 0 0110 0 1 1 0 002 0 7 7 0 00-7-7z"/></g></g>
</symbol>
<symbol id="plus" viewBox="0 0 24 24"><g data-name="Layer 2"><path d="M19 11h-6V5a1 1 0 00-2 0v6H5a1 1 0 000 2h6v6a1 1 0 002 0v-6h6a1 1 0 000-2z" data-name="plus"/></g>
</symbol>
<symbol id="setting" viewBox="0 0 24 24"><g data-name="Layer 2"><g data-name="settings-2"><path d="M12.94 22h-1.89a1.68 1.68 0 01-1.68-1.68v-1.09a.34.34 0 00-.22-.29.38.38 0 00-.41 0l-.74.8a1.67 1.67 0 01-2.37 0L4.26 18.4a1.66 1.66 0 01-.5-1.19 1.72 1.72 0 01.5-1.21l.74-.74a.34.34 0 000-.37c-.06-.15-.16-.26-.3-.26H3.68A1.69 1.69 0 012 12.94v-1.89a1.68 1.68 0 011.68-1.68h1.09a.34.34 0 00.29-.22.38.38 0 000-.41L4.26 8a1.67 1.67 0 010-2.37L5.6 4.26a1.65 1.65 0 011.18-.5 1.72 1.72 0 011.22.5l.74.74a.34.34 0 00.37 0c.15-.06.26-.16.26-.3V3.68A1.69 1.69 0 0111.06 2H13a1.68 1.68 0 011.68 1.68v1.09a.34.34 0 00.22.29.38.38 0 00.41 0l.69-.8a1.67 1.67 0 012.37 0l1.37 1.34a1.67 1.67 0 01.5 1.19 1.63 1.63 0 01-.5 1.21l-.74.74a.34.34 0 000 .37c.06.15.16.26.3.26h1.09A1.69 1.69 0 0122 11.06V13a1.68 1.68 0 01-1.68 1.68h-1.09a.34.34 0 00-.29.22.34.34 0 000 .37l.77.77a1.67 1.67 0 010 2.37l-1.31 1.33a1.65 1.65 0 01-1.18.5 1.72 1.72 0 01-1.19-.5l-.77-.74a.34.34 0 00-.37 0c-.15.06-.26.16-.26.3v1.09A1.69 1.69 0 0112.94 22zm-1.57-2h1.26v-.77a2.33 2.33 0 011.46-2.14 2.36 2.36 0 012.59.47l.54.54.88-.88-.54-.55a2.34 2.34 0 01-.48-2.56 2.33 2.33 0 012.14-1.45H20v-1.29h-.77a2.33 2.33 0 01-2.14-1.46 2.36 2.36 0 01.47-2.59l.54-.54-.88-.88-.55.54a2.39 2.39 0 01-4-1.67V4h-1.3v.77a2.33 2.33 0 01-1.46 2.14 2.36 2.36 0 01-2.59-.47l-.54-.54-.88.88.54.55a2.39 2.39 0 01-1.67 4H4v1.26h.77a2.33 2.33 0 012.14 1.46 2.36 2.36 0 01-.47 2.59l-.54.54.88.88.55-.54a2.39 2.39 0 014 1.67z" data-name="&lt;Group&gt;"/><path d="M12 15.5a3.5 3.5 0 113.5-3.5 3.5 3.5 0 01-3.5 3.5zm0-5a1.5 1.5 0 101.5 1.5 1.5 1.5 0 00-1.5-1.5z"/></g></g>
</symbol>
<symbol id="unlock" viewBox="0 0 24 24"><g data-name="Layer 2"><g data-name="unlock"><path d="M17 8h-7V6a2 2 0 0 1 4 0 1 1 0 0 0 2 0 4 4 0 0 0-8 0v2H7a3 3 0 0 0-3 3v8a3 3 0 0 0 3 3h10a3 3 0 0 0 3-3v-8a3 3 0 0 0-3-3zm1 11a1 1 0 0 1-1 1H7a1 1 0 0 1-1-1v-8a1 1 0 0 1 1-1h10a1 1 0 0 1 1 1z"/><path d="M12 12a3 3 0 1 0 3 3 3 3 0 0 0-3-3zm0 4a1 1 0 1 1 1-1 1 1 0 0 1-1 1z"/></g></g>
</symbol></svg>