<?xml version="1.0" encoding="utf-8"?>
<svg xmlns="http://www.w3.org/2000/svg">
<symbol id="clock" viewBox="0 0 24 24"><g data-name="Layer 2"><g data-name="clock"><path d="M12 2a10 10 0 1010 10A10 10 0 0012 2zm0 18a8 8 0 118-8 8 8 0 01-8 8z"/><path d="M16 11h-3V8a1 1 0 00-2 0v4a1 1 0 001 1h4a1 1 0 000-2z"/></g></g>
</symbol>
<symbol id="edit" viewBox="0 0 24 24"><g data-name="Layer 2"><g data-name="edit-2"><path d="M19 20H5a1 1 0 0 0 0 2h14a1 1 0 0 0 0-2zM5 18h.09l4.17-.38a2 2 0 0 0 1.21-.57l9-9a1.92 1.92 0 0 0-.07-2.71L16.66 2.6A2 2 0 0 0 14 2.53l-9 9a2 2 0 0 0-.57 1.21L4 16.91a1 1 0 0 0 .29.8A1 1 0 0 0 5 18zM15.27 4L18 6.73l-2 1.95L13.32 6zm-8.9 8.91L12 7.32l2.7 2.7-5.6 5.6-3 .28z"/></g></g>
</symbol>
<symbol id="github" viewBox="0 0 24 24"><path d="M16.24 22a1 1 0 0 1-1-1v-2.6a2.15 2.15 0 0 0-.54-1.66 1 1 0 0 1 .61-1.67C17.75 14.78 20 14 20 9.77a4 4 0 0 0-.67-2.22 2.75 2.75 0 0 1-.41-2.06 3.71 3.71 0 0 0 0-1.41 7.65 7.65 0 0 0-2.09 1.09 1 1 0 0 1-.84.15 10.15 10.15 0 0 0-5.52 0 1 1 0 0 1-.84-.15 7.4 7.4 0 0 0-2.11-1.09 3.52 3.52 0 0 0 0 1.41 2.84 2.84 0 0 1-.43 2.08 4.07 4.07 0 0 0-.67 2.23c0 3.89 1.88 4.93 4.7 5.29a1 1 0 0 1 .82.66 1 1 0 0 1-.21 1 2.06 2.06 0 0 0-.55 1.56V21a1 1 0 0 1-2 0v-.57a6 6 0 0 1-5.27-2.09 3.9 3.9 0 0 0-1.16-.88 1 1 0 1 1 .5-1.94 4.93 4.93 0 0 1 2 1.36c1 1 2 1.88 3.9 1.52a3.89 3.89 0 0 1 .23-1.58c-2.06-.52-5-2-5-7a6 6 0 0 1 1-3.33.85.85 0 0 0 .13-.62 5.69 5.69 0 0 1 .33-3.21 1 1 0 0 1 .63-.57c.34-.1 1.56-.3 3.87 1.2a12.16 12.16 0 0 1 5.69 0c2.31-1.5 3.53-1.31 3.86-1.2a1 1 0 0 1 .63.57 5.71 5.71 0 0 1 .33 3.22.75.75 0 0 0 .11.57 6 6 0 0 1 1 3.34c0 5.07-2.92 6.54-5 7a4.28 4.28 0 0 1 .22 1.67V21a1 1 0 0 1-.94 1z" data-name="Layer 2"/>
</symbol>
<symbol id="heart" viewBox="0 0 24 24"><g data-name="Layer 2"><path d="M12 21a1 1 0 0 1-.71-.29l-7.77-7.78a5.26 5.26 0 0 1 0-7.4 5.24 5.24 0 0 1 7.4 0L12 6.61l1.08-1.08a5.24 5.24 0 0 1 7.4 0 5.26 5.26 0 0 1 0 7.4l-7.77 7.78A1 1 0 0 1 12 21zM7.22 6a3.2 3.2 0 0 0-2.28.94 3.24 3.24 0 0 0 0 4.57L12 18.58l7.06-7.07a3.24 3.24 0 0 0 0-4.57 3.32 3.32 0 0 0-4.56 0l-1.79 1.8a1 1 0 0 1-1.42 0L9.5 6.94A3.2 3.2 0 0 0 7.22 6z" data-name="heart"/></g>
</symbol>
<symbol id="in" viewBox="0 0 24 24"><g data-name="Layer 2"><g data-name="log-in"><path d="M19 4h-2a1 1 0 0 0 0 2h1v12h-1a1 1 0 0 0 0 2h2a1 1 0 0 0 1-1V5a1 1 0 0 0-1-1zM11.8 7.4a1 1 0 0 0-1.6 1.2L12 11H4a1 1 0 0 0 0 2h8.09l-1.72 2.44a1 1 0 0 0 .24 1.4 1 1 0 0 0 .58.18 1 1 0 0 0 .81-.42l2.82-4a1 1 0 0 0 0-1.18z"/></g></g>
</symbol>
<symbol id="person" viewBox="0 0 24 24"><g data-name="Layer 2"><g data-name="person"><path d="M12 11a4 4 0 10-4-4 4 4 0 004 4zm0-6a2 2 0 11-2 2 2 2 0 012-2zM12 13a7 7 0 00-7 7 1 1 0 002 0 5 5 0 0110 0 1 1 0 002 0 7 7 0 00-7-7z"/></g></g>
</symbol>
<symbol id="unlock" viewBox="0 0 24 24"><g data-name="Layer 2"><g data-name="unlock"><path d="M17 8h-7V6a2 2 0 0 1 4 0 1 1 0 0 0 2 0 4 4 0 0 0-8 0v2H7a3 3 0 0 0-3 3v8a3 3 0 0 0 3 3h10a3 3 0 0 0 3-3v-8a3 3 0 0 0-3-3zm1 11a1 1 0 0 1-1 1H7a1 1 0 0 1-1-1v-8a1 1 0 0 1 1-1h10a1 1 0 0 1 1 1z"/><path d="M12 12a3 3 0 1 0 3 3 3 3 0 0 0-3-3zm0 4a1 1 0 1 1 1-1 1 1 0 0 1-1 1z"/></g></g>
</symbol></svg>